<svg aria-hidden="true" style="position: absolute; width: 0; height: 0; overflow: hidden;" version="1.1" xmlns="http://www.w3.org/2000/svg" xmlns:xlink="http://www.w3.org/1999/xlink">
<defs>
<symbol id="icon-menu" viewBox="0 0 48 32">
<path d="M2.667 32c-0.756 0-1.388-0.256-1.899-0.768-0.512-0.51-0.768-1.143-0.768-1.899s0.256-1.389 0.768-1.899c0.51-0.512 1.143-0.768 1.899-0.768h42.667c0.755 0 1.389 0.256 1.899 0.768 0.512 0.51 0.768 1.143 0.768 1.899s-0.256 1.389-0.768 1.899c-0.51 0.512-1.143 0.768-1.899 0.768h-42.667zM2.667 18.667c-0.756 0-1.388-0.256-1.899-0.768-0.512-0.51-0.768-1.143-0.768-1.899s0.256-1.389 0.768-1.901c0.51-0.51 1.143-0.765 1.899-0.765h42.667c0.755 0 1.389 0.255 1.899 0.765 0.512 0.512 0.768 1.146 0.768 1.901s-0.256 1.388-0.768 1.899c-0.51 0.512-1.143 0.768-1.899 0.768h-42.667zM2.667 5.333c-0.756 0-1.388-0.255-1.899-0.765-0.512-0.512-0.768-1.146-0.768-1.901s0.256-1.389 0.768-1.901c0.51-0.51 1.143-0.765 1.899-0.765h42.667c0.755 0 1.389 0.255 1.899 0.765 0.512 0.512 0.768 1.146 0.768 1.901s-0.256 1.389-0.768 1.901c-0.51 0.51-1.143 0.765-1.899 0.765h-42.667z"></path>
</symbol>
<symbol id="icon-studio" viewBox="0 0 86 32">
<path d="M5.751 15.681c-1.141 0-2.238-0.183-3.292-0.549-1.039-0.38-1.843-0.863-2.414-1.448l0.636-1.251c0.541 0.527 1.265 0.973 2.172 1.339 0.922 0.351 1.887 0.527 2.897 0.527 0.966 0 1.748-0.117 2.348-0.351 0.614-0.249 1.061-0.578 1.339-0.987 0.293-0.41 0.439-0.863 0.439-1.361 0-0.6-0.176-1.083-0.527-1.448-0.337-0.366-0.783-0.651-1.339-0.856-0.556-0.219-1.17-0.41-1.843-0.571s-1.346-0.329-2.019-0.505c-0.673-0.19-1.295-0.439-1.865-0.746-0.556-0.307-1.009-0.71-1.361-1.207-0.336-0.512-0.505-1.178-0.505-1.997 0-0.761 0.198-1.456 0.593-2.085 0.41-0.644 1.031-1.156 1.865-1.536 0.834-0.395 1.902-0.593 3.204-0.593 0.863 0 1.719 0.124 2.567 0.373 0.848 0.234 1.58 0.563 2.194 0.987l-0.549 1.295c-0.658-0.439-1.361-0.761-2.107-0.966-0.731-0.205-1.441-0.307-2.129-0.307-0.922 0-1.682 0.124-2.282 0.373s-1.046 0.585-1.339 1.009c-0.278 0.41-0.417 0.878-0.417 1.404 0 0.6 0.168 1.083 0.505 1.448 0.351 0.366 0.805 0.651 1.361 0.856 0.571 0.205 1.192 0.388 1.865 0.549s1.339 0.336 1.997 0.527c0.673 0.19 1.287 0.439 1.843 0.746 0.571 0.293 1.024 0.688 1.361 1.185 0.351 0.497 0.527 1.148 0.527 1.953 0 0.746-0.205 1.441-0.614 2.085-0.41 0.629-1.039 1.141-1.887 1.536-0.834 0.38-1.909 0.571-3.226 0.571z"></path>
<path d="M17.716 15.631c-0.735 0-1.377-0.137-1.926-0.412s-0.977-0.686-1.284-1.234c-0.296-0.549-0.444-1.234-0.444-2.057v-5.020h1.169v4.888c0 0.922 0.225 1.618 0.675 2.090 0.461 0.461 1.103 0.691 1.926 0.691 0.603 0 1.125-0.121 1.564-0.362 0.45-0.252 0.79-0.614 1.020-1.086 0.241-0.472 0.362-1.037 0.362-1.695v-4.526h1.169v8.64h-1.119v-2.37l0.181 0.428c-0.274 0.636-0.702 1.136-1.284 1.498-0.571 0.351-1.24 0.527-2.008 0.527z"></path>
<path d="M29.613 6.826c0.702 0 1.317 0.137 1.843 0.411 0.538 0.263 0.955 0.669 1.251 1.218 0.307 0.549 0.461 1.24 0.461 2.074v5.020h-1.169v-4.904c0-0.911-0.23-1.596-0.691-2.057-0.45-0.472-1.086-0.708-1.909-0.708-0.614 0-1.152 0.126-1.613 0.379-0.45 0.241-0.801 0.598-1.053 1.070-0.241 0.461-0.362 1.020-0.362 1.679v4.542h-1.169v-8.64h1.119v2.37l-0.181-0.444c0.274-0.625 0.713-1.114 1.317-1.465 0.603-0.362 1.322-0.543 2.156-0.543z"></path>
<path d="M36.522 15.549v-9.727c0-0.768 0.225-1.388 0.675-1.86s1.097-0.708 1.942-0.708c0.329 0 0.647 0.044 0.955 0.132s0.565 0.225 0.773 0.411l-0.395 0.872c-0.165-0.143-0.357-0.247-0.576-0.313-0.219-0.077-0.455-0.115-0.708-0.115-0.494 0-0.872 0.137-1.136 0.411s-0.395 0.68-0.395 1.218v1.317l0.033 0.543v7.818h-1.169zM34.975 7.879v-0.971h5.349v0.971h-5.349zM40.674 17.949l1.23-14.612h1.169l-1.169 14.612h-1.23z"></path>
<path d="M49.876 15.631c-0.834 0-1.585-0.187-2.255-0.56-0.658-0.384-1.179-0.905-1.563-1.563-0.384-0.669-0.576-1.432-0.576-2.288 0-0.867 0.192-1.629 0.576-2.288s0.905-1.174 1.563-1.547 1.41-0.56 2.255-0.56c0.856 0 1.613 0.187 2.271 0.56 0.669 0.373 1.191 0.889 1.564 1.547 0.384 0.658 0.576 1.421 0.576 2.288 0 0.856-0.192 1.618-0.576 2.288-0.373 0.658-0.894 1.179-1.564 1.563-0.669 0.373-1.426 0.56-2.271 0.56zM49.876 14.594c0.625 0 1.179-0.137 1.662-0.411 0.483-0.285 0.861-0.68 1.136-1.185 0.285-0.516 0.428-1.108 0.428-1.777 0-0.68-0.143-1.273-0.428-1.777-0.274-0.505-0.653-0.894-1.136-1.169-0.483-0.285-1.031-0.428-1.646-0.428s-1.163 0.143-1.646 0.428c-0.483 0.274-0.867 0.664-1.152 1.169s-0.428 1.097-0.428 1.777c0 0.669 0.143 1.262 0.428 1.777 0.285 0.505 0.669 0.9 1.152 1.185 0.483 0.274 1.026 0.411 1.629 0.411z"></path>
<path d="M58.192 15.549l-6.912-12.294h1.119l6.616 11.669h-0.51l3.045-8.015h1.004l3.012 8.015h-0.51l6.665-11.669h1.070l-6.929 12.294h-1.103l-2.897-7.538h0.346l-2.913 7.538h-1.103z"></path>
<path d="M74.325 15.631c-0.9 0-1.69-0.187-2.37-0.56-0.68-0.384-1.212-0.905-1.596-1.563-0.384-0.669-0.576-1.432-0.576-2.288s0.181-1.613 0.543-2.271c0.373-0.658 0.878-1.174 1.514-1.547 0.647-0.384 1.371-0.576 2.172-0.576 0.812 0 1.531 0.187 2.156 0.56 0.636 0.362 1.136 0.878 1.498 1.547 0.362 0.658 0.543 1.421 0.543 2.288 0 0.055-0.006 0.115-0.016 0.181 0 0.055 0 0.115 0 0.181h-7.521v-0.872h6.896l-0.461 0.346c0-0.625-0.137-1.18-0.411-1.662-0.263-0.494-0.625-0.878-1.086-1.152s-0.993-0.411-1.596-0.411c-0.592 0-1.125 0.137-1.596 0.411s-0.839 0.658-1.103 1.152c-0.263 0.494-0.395 1.059-0.395 1.695v0.181c0 0.658 0.143 1.24 0.428 1.745 0.296 0.494 0.702 0.883 1.218 1.169 0.527 0.274 1.125 0.411 1.794 0.411 0.527 0 1.015-0.093 1.465-0.28 0.461-0.186 0.856-0.472 1.185-0.856l0.658 0.757c-0.384 0.461-0.867 0.812-1.448 1.053-0.571 0.241-1.201 0.362-1.893 0.362z"></path>
<path d="M80.588 15.549v-8.64h1.119v2.353l-0.115-0.411c0.241-0.658 0.647-1.158 1.218-1.498 0.57-0.351 1.278-0.527 2.123-0.527v1.136c-0.044 0-0.088 0-0.132 0-0.044-0.011-0.088-0.016-0.132-0.016-0.911 0-1.624 0.28-2.139 0.839-0.516 0.549-0.774 1.333-0.774 2.353v4.411h-1.169z"></path>
<path d="M5.751 31.796c-1.141 0-2.238-0.183-3.292-0.549-1.039-0.38-1.843-0.863-2.414-1.448l0.636-1.251c0.541 0.527 1.265 0.973 2.172 1.339 0.922 0.351 1.887 0.527 2.897 0.527 0.966 0 1.748-0.117 2.348-0.351 0.614-0.249 1.061-0.578 1.339-0.988 0.293-0.41 0.439-0.863 0.439-1.361 0-0.6-0.176-1.083-0.527-1.448-0.337-0.366-0.783-0.651-1.339-0.856-0.556-0.219-1.17-0.41-1.843-0.571s-1.346-0.329-2.019-0.505c-0.673-0.19-1.295-0.439-1.865-0.746-0.556-0.307-1.009-0.71-1.361-1.207-0.336-0.512-0.505-1.178-0.505-1.997 0-0.761 0.198-1.456 0.593-2.085 0.41-0.644 1.031-1.156 1.865-1.536 0.834-0.395 1.902-0.593 3.204-0.593 0.863 0 1.719 0.124 2.567 0.373 0.848 0.234 1.58 0.563 2.194 0.988l-0.549 1.295c-0.658-0.439-1.361-0.761-2.107-0.966-0.731-0.205-1.441-0.307-2.129-0.307-0.922 0-1.682 0.124-2.282 0.373s-1.046 0.585-1.339 1.009c-0.278 0.41-0.417 0.878-0.417 1.404 0 0.6 0.168 1.083 0.505 1.448 0.351 0.366 0.805 0.651 1.361 0.856 0.571 0.205 1.192 0.388 1.865 0.549s1.339 0.336 1.997 0.527c0.673 0.19 1.287 0.439 1.843 0.746 0.571 0.293 1.024 0.688 1.361 1.185 0.351 0.497 0.527 1.148 0.527 1.953 0 0.746-0.205 1.441-0.614 2.085-0.41 0.629-1.039 1.141-1.887 1.536-0.834 0.38-1.909 0.571-3.226 0.571z"></path>
<path d="M16.877 31.746c-0.812 0-1.437-0.219-1.876-0.658s-0.658-1.059-0.658-1.86v-8.114h1.169v8.048c0 0.505 0.126 0.894 0.379 1.169 0.263 0.274 0.636 0.411 1.119 0.411 0.516 0 0.944-0.148 1.284-0.444l0.411 0.839c-0.23 0.209-0.51 0.362-0.839 0.461-0.318 0.099-0.647 0.148-0.987 0.148zM12.795 23.995v-0.971h5.349v0.971h-5.349z"></path>
<path d="M24.402 31.746c-0.735 0-1.377-0.137-1.926-0.411s-0.977-0.686-1.284-1.234c-0.296-0.549-0.444-1.234-0.444-2.057v-5.020h1.169v4.888c0 0.922 0.225 1.618 0.675 2.090 0.461 0.461 1.103 0.691 1.926 0.691 0.604 0 1.125-0.121 1.564-0.362 0.45-0.252 0.79-0.614 1.020-1.086 0.241-0.472 0.362-1.037 0.362-1.695v-4.526h1.169v8.641h-1.119v-2.37l0.181 0.428c-0.274 0.636-0.702 1.136-1.284 1.498-0.571 0.351-1.24 0.527-2.008 0.527z"></path>
<path d="M35.375 31.918c-0.823 0-1.563-0.186-2.222-0.56-0.647-0.373-1.158-0.889-1.531-1.547-0.373-0.669-0.56-1.437-0.56-2.304 0-0.878 0.187-1.646 0.56-2.304s0.883-1.169 1.531-1.531c0.658-0.373 1.399-0.56 2.222-0.56 0.757 0 1.432 0.17 2.024 0.51 0.603 0.34 1.081 0.839 1.432 1.498 0.362 0.647 0.472 1.314 0.472 2.258-0.343 0.9-0.104 1.857-0.455 2.515s-0.828 1.163-1.432 1.514c-0.593 0.34-1.273 0.51-2.041 0.51zM35.457 30.881c0.614 0 1.163-0.137 1.646-0.412 0.494-0.285 0.878-0.68 1.152-1.185 0.285-0.516 0.428-1.108 0.428-1.777 0-0.68-0.143-1.273-0.428-1.777-0.274-0.505-0.658-0.894-1.152-1.169-0.483-0.285-1.031-0.428-1.646-0.428-0.603 0-1.147 0.143-1.629 0.428-0.483 0.274-0.867 0.664-1.152 1.169s-0.428 1.097-0.428 1.777c0 0.669 0.143 1.262 0.428 1.777 0.285 0.505 0.669 0.9 1.152 1.185 0.483 0.274 1.026 0.412 1.629 0.412zM39.131 31.835l0.343-2.572-0.171-1.029v-0.857l0.343-1.714 1.029-8.058h1.257l-2.097 14.229h-0.704z"></path>
<path d="M43.043 31.664v-8.641h1.169v8.641h-1.169zM43.635 21.114c-0.241 0-0.444-0.082-0.609-0.247s-0.247-0.362-0.247-0.593c0-0.23 0.082-0.422 0.247-0.576 0.165-0.165 0.368-0.247 0.609-0.247s0.444 0.077 0.609 0.23c0.165 0.154 0.247 0.346 0.247 0.576 0 0.241-0.082 0.444-0.247 0.609-0.154 0.165-0.357 0.247-0.609 0.247z"></path>
<path d="M50.985 31.746c-0.834 0-1.585-0.186-2.255-0.56-0.658-0.384-1.179-0.905-1.563-1.564-0.384-0.669-0.576-1.432-0.576-2.288 0-0.867 0.192-1.629 0.576-2.288s0.905-1.174 1.563-1.547 1.41-0.56 2.255-0.56c0.856 0 1.613 0.187 2.271 0.56 0.669 0.373 1.191 0.889 1.563 1.547 0.384 0.658 0.576 1.421 0.576 2.288 0 0.856-0.192 1.618-0.576 2.288-0.373 0.658-0.894 1.18-1.563 1.564-0.669 0.373-1.426 0.56-2.271 0.56zM50.985 30.709c0.625 0 1.179-0.137 1.662-0.412 0.483-0.285 0.861-0.68 1.136-1.185 0.285-0.516 0.428-1.108 0.428-1.777 0-0.68-0.143-1.273-0.428-1.777-0.274-0.505-0.653-0.894-1.136-1.169-0.483-0.285-1.031-0.428-1.646-0.428s-1.163 0.143-1.646 0.428c-0.483 0.274-0.867 0.664-1.152 1.169s-0.428 1.097-0.428 1.777c0 0.669 0.143 1.262 0.428 1.777 0.285 0.505 0.669 0.9 1.152 1.185 0.483 0.274 1.026 0.412 1.629 0.412z"></path>
</symbol>
<symbol id="icon-flower" viewBox="0 0 26 32">
<path fill="#fcea2b" style="fill: var(--color1, #fcea2b)" d="M14.007 10.983c0.092-0.216 0.484-1.101 0.641-1.291 0.868-1.052 2.524-1.119 2.524-1.119s0.248 1.638-0.619 2.69c-0.234 0.284-0.527 0.497-0.828 0.655l-0.624 0.284c0.273-0.146 1.202-0.547 1.531-0.588 1.353-0.169 2.603 0.92 2.603 0.92s-0.945 1.361-2.298 1.531c-0.503 0.063-0.993-0.049-1.409-0.213l-0.506-0.188c0.359 0.134 1.22 0.523 1.515 0.823 0.955 0.974 0.846 2.627 0.846 2.627s-1.656 0.073-2.61-0.9c-0.211-0.215-0.631-1.264-0.751-1.52l0.257 0.802c0.080 0.239 0.131 0.493 0.136 0.759 0.025 1.363-1.19 2.491-1.19 2.491s-1.254-1.084-1.279-2.446c-0.005-0.279 0.451-1.574 0.451-1.574l-0.382 0.877c-0.593 0.833-1.512 1.387-2.529 1.489-0.31 0.031-0.517 0.022-0.517 0.022s-0.108-1.654 0.847-2.627c0.277-0.283 0.614-0.478 0.952-0.611l0.572-0.238c-0.001 0-1.444 0.487-1.925 0.427-1.352-0.169-2.298-1.531-2.298-1.531s1.25-1.088 2.604-0.92c0.28 0.035 1.286 0.528 1.527 0.642l-0.74-0.405c-0.258-0.15-0.505-0.342-0.708-0.589-0.867-1.051-0.619-2.69-0.619-2.69s1.656 0.067 2.524 1.119c0.168 0.203 0.621 1.076 0.715 1.307l-0.305-0.649c-0.104-0.273-0.162-0.561-0.17-0.853-0.025-1.363 1.19-2.49 1.19-2.49s1.254 1.083 1.279 2.446c0.003 0.291-0.044 0.581-0.138 0.856z"></path>
<path fill="#f1b31c" style="fill: var(--color2, #f1b31c)" d="M13.177 14.58c0.941 0 1.704-0.763 1.704-1.704s-0.763-1.704-1.704-1.704c-0.941 0-1.704 0.763-1.704 1.704s0.763 1.704 1.704 1.704z"></path>
<path fill="#5c9e31" style="fill: var(--color3, #5c9e31)" d="M7.375 17.134c0.79 0.97 0.555 2.474 0.555 2.474s-1.517-0.069-2.307-1.039c-0.79-0.97-0.555-2.474-0.555-2.474s1.517 0.070 2.307 1.039zM11.855 21.71c0.964-0.789 2.458-0.555 2.458-0.555s-0.068 1.515-1.032 2.304c-0.964 0.79-2.458 0.555-2.458 0.555s0.069-1.515 1.032-2.304z"></path>
<path fill="none" stroke="#000" style="stroke: var(--color4, #000)" stroke-linejoin="round" stroke-linecap="round" stroke-miterlimit="4" stroke-width="0.3787" d="M13.168 14.568c0.92 0 1.666-0.746 1.666-1.666s-0.746-1.666-1.666-1.666-1.666 0.746-1.666 1.666c0 0.92 0.746 1.666 1.666 1.666z"></path>
<path fill="none" stroke="#000" style="stroke: var(--color4, #000)" stroke-linejoin="round" stroke-linecap="round" stroke-miterlimit="4" stroke-width="0.3787" d="M13.996 11.017c0.092-0.215 0.482-1.096 0.638-1.286 0.864-1.048 2.513-1.114 2.513-1.114s0.247 1.631-0.616 2.679c-0.233 0.283-0.524 0.495-0.824 0.652l-0.621 0.283c0.272-0.145 1.196-0.545 1.524-0.585 1.347-0.168 2.591 0.916 2.591 0.916s-0.941 1.356-2.287 1.524c-0.501 0.062-0.988-0.048-1.402-0.212l-0.504-0.187c0.357 0.133 1.215 0.521 1.508 0.82 0.95 0.97 0.842 2.616 0.842 2.616s-1.648 0.073-2.598-0.896c-0.21-0.214-0.628-1.258-0.747-1.513l0.256 0.799c0.079 0.238 0.131 0.491 0.136 0.756 0.025 1.358-1.185 2.48-1.185 2.48s-1.249-1.079-1.274-2.436c-0.005-0.278 0.449-1.568 0.449-1.568l-0.38 0.874c-0.59 0.829-1.505 1.381-2.518 1.483-0.308 0.031-0.514 0.022-0.514 0.022s-0.108-1.647 0.843-2.616c0.276-0.282 0.611-0.476 0.948-0.608l0.57-0.237c-0.001 0-1.438 0.485-1.916 0.425-1.346-0.169-2.288-1.524-2.288-1.524s1.244-1.084 2.592-0.916c0.279 0.035 1.28 0.526 1.52 0.64l-0.736-0.404c-0.257-0.15-0.502-0.341-0.704-0.586-0.863-1.047-0.616-2.678-0.616-2.678s1.649 0.067 2.513 1.114c0.167 0.203 0.618 1.072 0.712 1.302l-0.303-0.646c-0.104-0.272-0.161-0.559-0.169-0.85-0.025-1.357 1.185-2.48 1.185-2.48s1.249 1.078 1.274 2.436c0.003 0.29-0.043 0.578-0.137 0.853M7.525 17.030c0.93 1.138 0.653 2.902 0.653 2.902s-1.784-0.081-2.713-1.219c-0.93-1.138-0.653-2.901-0.653-2.901s1.784 0.082 2.713 1.218zM11.652 21.506c1.138-0.93 2.902-0.653 2.902-0.653s-0.081 1.784-1.219 2.713c-1.138 0.93-2.902 0.653-2.902 0.653s0.082-1.784 1.219-2.713z"></path>
<path fill="none" stroke="#000" style="stroke: var(--color4, #000)" stroke-linejoin="round" stroke-linecap="round" stroke-miterlimit="4" stroke-width="0.3787" d="M11.026 17.852c-1.146 1.182-2.558 3.414-1.942 6.909"></path>
</symbol>
<symbol id="icon-bulina" viewBox="0 0 32 32">
<path d="M15.782 0c2.072 0 4.125 0.408 6.039 1.201s3.654 1.956 5.12 3.421 2.628 3.205 3.421 5.12c0.793 1.915 1.201 3.967 1.201 6.040 0 4.186-1.663 8.2-4.622 11.159s-6.974 4.622-11.159 4.622c-2.073 0-4.125-0.408-6.040-1.201s-3.655-1.956-5.12-3.421c-2.96-2.96-4.622-6.974-4.622-11.159s1.663-8.2 4.622-11.159c2.96-2.96 6.974-4.622 11.159-4.622zM15.782 13.415c-0.628 0-1.23 0.249-1.674 0.693s-0.693 1.046-0.693 1.674c0 0.628 0.249 1.23 0.693 1.674s1.046 0.693 1.674 0.693 1.23-0.249 1.674-0.693c0.444-0.444 0.693-1.046 0.693-1.674s-0.249-1.23-0.693-1.674c-0.444-0.444-1.046-0.693-1.674-0.693zM7.102 13.415c-0.628 0-1.23 0.249-1.674 0.693s-0.693 1.046-0.693 1.674c0 0.628 0.249 1.23 0.693 1.674s1.046 0.693 1.674 0.693 1.23-0.249 1.674-0.693c0.444-0.444 0.693-1.046 0.693-1.674s-0.249-1.23-0.693-1.674c-0.444-0.444-1.046-0.693-1.674-0.693zM24.462 13.415c-0.628 0-1.23 0.249-1.674 0.693s-0.693 1.046-0.693 1.674c0 0.628 0.25 1.23 0.693 1.674s1.046 0.693 1.674 0.693 1.23-0.249 1.674-0.693c0.444-0.444 0.693-1.046 0.693-1.674s-0.25-1.23-0.693-1.674c-0.444-0.444-1.046-0.693-1.674-0.693z"></path>
</symbol>
<symbol id="icon-title" viewBox="0 0 26 32">
<path d="M0.046 31.983h16.033c5.49 0 9.941-6.123 9.941-13.676v-4.632c0-7.553-4.451-13.676-9.941-13.676h-16.033v0.662h16.033c5.224 0 9.46 5.827 9.46 13.014v4.632c0 7.187-4.235 13.014-9.46 13.014h-16.033v0.662z"></path>
</symbol>
<symbol id="icon-home" viewBox="0 0 32 32">
<path d="M27.354 10.354c-0.046 0.046-0.102 0.083-0.162 0.109s-0.126 0.038-0.192 0.038-0.131-0.013-0.192-0.038c-0.061-0.025-0.116-0.062-0.162-0.109l-5.146-5.146v15.792c0 1.989-0.79 3.897-2.197 5.303s-3.314 2.197-5.303 2.197-3.897-0.79-5.303-2.197c-1.407-1.407-2.197-3.314-2.197-5.303v-11c0-0.133 0.053-0.26 0.146-0.354s0.221-0.146 0.354-0.146c0.133 0 0.26 0.053 0.354 0.146s0.146 0.221 0.146 0.354v11c0 1.724 0.685 3.377 1.904 4.596s2.872 1.904 4.596 1.904c1.724 0 3.377-0.685 4.596-1.904s1.904-2.872 1.904-4.596v-15.792l-5.146 5.146c-0.094 0.094-0.221 0.147-0.354 0.147s-0.26-0.053-0.354-0.147c-0.094-0.094-0.146-0.221-0.146-0.354s0.053-0.26 0.146-0.354l6-6c0.046-0.046 0.102-0.083 0.162-0.109s0.126-0.038 0.192-0.038 0.131 0.013 0.192 0.038c0.061 0.025 0.116 0.062 0.162 0.109l6 6c0.047 0.046 0.083 0.102 0.108 0.162s0.038 0.126 0.038 0.191-0.013 0.131-0.038 0.191c-0.025 0.061-0.062 0.116-0.108 0.162z"></path>
</symbol>
<symbol id="icon-figma" viewBox="0 0 24 24">
<path d="M13 12.5c0-0.691 0.279-1.314 0.732-1.768s1.077-0.732 1.768-0.732 1.314 0.279 1.768 0.732 0.732 1.077 0.732 1.768-0.279 1.314-0.732 1.768-1.077 0.732-1.768 0.732-1.314-0.279-1.768-0.732-0.732-1.077-0.732-1.768zM8.5 8c-0.691 0-1.314-0.279-1.768-0.732s-0.732-1.077-0.732-1.768 0.279-1.314 0.732-1.768 1.077-0.732 1.768-0.732h2.5v5zM13 8v-5h2.5c0.691 0 1.314 0.279 1.768 0.732s0.732 1.077 0.732 1.768-0.279 1.314-0.732 1.768-1.077 0.732-1.768 0.732zM11 17v2.5c0 0.691-0.279 1.314-0.732 1.768s-1.077 0.732-1.768 0.732-1.314-0.279-1.768-0.732-0.732-1.077-0.732-1.768 0.279-1.314 0.732-1.768 1.077-0.732 1.768-0.732zM4 12.5c0 1.242 0.505 2.369 1.318 3.182 0.112 0.112 0.23 0.218 0.353 0.318-0.123 0.1-0.241 0.206-0.353 0.318-0.813 0.813-1.318 1.94-1.318 3.182s0.505 2.369 1.318 3.182 1.94 1.318 3.182 1.318 2.369-0.505 3.182-1.318 1.318-1.94 1.318-3.182v-3.258c0.715 0.478 1.575 0.758 2.5 0.758 1.242 0 2.369-0.505 3.182-1.318s1.318-1.94 1.318-3.182-0.505-2.369-1.318-3.182c-0.112-0.112-0.23-0.218-0.353-0.318 0.123-0.1 0.241-0.206 0.353-0.318 0.813-0.813 1.318-1.94 1.318-3.182s-0.505-2.369-1.318-3.182-1.94-1.318-3.182-1.318h-7c-1.242 0-2.369 0.505-3.182 1.318s-1.318 1.94-1.318 3.182 0.505 2.369 1.318 3.182c0.112 0.112 0.23 0.218 0.353 0.318-0.123 0.1-0.241 0.206-0.353 0.318-0.813 0.813-1.318 1.94-1.318 3.182zM6 12.5c0-0.691 0.279-1.314 0.732-1.768s1.077-0.732 1.768-0.732h2.5v5h-2.5c-0.691 0-1.314-0.279-1.768-0.732s-0.732-1.077-0.732-1.768z"></path>
</symbol>
<symbol id="icon-dribble" viewBox="0 0 32 32">
<path stroke-linejoin="round" stroke-linecap="round" stroke-miterlimit="4" stroke-width="2.6667" d="M29.333 16c0.002 1.756-0.344 3.495-1.017 5.117s-1.662 3.094-2.909 4.331c-1.236 1.234-2.703 2.212-4.317 2.878s-3.344 1.008-5.090 1.006c-7.364 0-13.333-5.969-13.333-13.333-0.005-3.419 1.309-6.708 3.667-9.183 1.244-1.313 2.743-2.358 4.405-3.072s3.452-1.080 5.261-1.078c1.746-0.002 3.476 0.34 5.090 1.006s3.081 1.645 4.317 2.878c1.246 1.237 2.235 2.71 2.909 4.331s1.020 3.361 1.017 5.117z"></path>
<path stroke-linejoin="round" stroke-linecap="round" stroke-miterlimit="4" stroke-width="2.6667" d="M29.333 16c-1.945 0-7.312-0.733-12.115 1.375-5.218 2.291-8.996 5.845-10.643 8.056"></path>
<path stroke-linejoin="round" stroke-linecap="round" stroke-miterlimit="4" stroke-width="2.6667" d="M11 3.636c2.087 1.926 6.64 6.829 8.333 11.697s2.32 10.853 2.707 12.557"></path>
<path stroke-linejoin="round" stroke-linecap="round" stroke-miterlimit="4" stroke-width="2.6667" d="M2.769 14.333c2.519 0.152 9.186 0.289 13.453-1.533s7.938-5.173 9.197-6.237M3.667 21.075c1.175 2.844 3.294 5.196 6 6.661"></path>
<path stroke-linejoin="round" stroke-linecap="round" stroke-miterlimit="4" stroke-width="2.6667" d="M2.667 16c-0.005-3.419 1.309-6.708 3.667-9.183 1.244-1.313 2.743-2.358 4.405-3.072s3.452-1.080 5.261-1.078M21.333 3.776c1.518 0.664 2.9 1.606 4.074 2.775 1.246 1.237 2.235 2.71 2.909 4.331s1.020 3.361 1.017 5.117c0 1.641-0.297 3.214-0.84 4.667M16 29.333c1.746 0.002 3.476-0.34 5.090-1.006s3.081-1.645 4.317-2.878"></path>
</symbol>
<symbol id="icon-instagram" viewBox="0 0 34 32">
<path d="M32.425 9.408c-0.076-1.7-0.355-2.869-0.755-3.882-0.412-1.075-1.046-2.038-1.877-2.838-0.812-0.813-1.794-1.444-2.872-1.844-1.033-0.394-2.213-0.669-3.937-0.744-1.737-0.081-2.289-0.1-6.696-0.1s-4.958 0.019-6.689 0.094c-1.725 0.075-2.91 0.35-3.937 0.744-1.091 0.406-2.067 1.031-2.879 1.85-0.824 0.8-1.464 1.769-1.87 2.832-0.399 1.019-0.678 2.182-0.754 3.882-0.082 1.713-0.102 2.257-0.102 6.601s0.019 4.888 0.095 6.595c0.076 1.7 0.355 2.869 0.755 3.882 0.412 1.075 1.052 2.038 1.877 2.838 0.812 0.813 1.794 1.444 2.872 1.844 1.034 0.394 2.213 0.669 3.938 0.744 1.731 0.075 2.283 0.094 6.689 0.094s4.958-0.019 6.689-0.094c1.724-0.075 2.91-0.35 3.937-0.744 2.181-0.832 3.906-2.532 4.749-4.682 0.399-1.019 0.678-2.182 0.754-3.882 0.076-1.707 0.095-2.251 0.095-6.595s-0.006-4.888-0.082-6.595zM29.503 22.473c-0.070 1.563-0.336 2.407-0.558 2.969-0.545 1.394-1.668 2.5-3.082 3.038-0.571 0.219-1.433 0.481-3.012 0.55-1.712 0.075-2.225 0.094-6.556 0.094s-4.851-0.019-6.556-0.094c-1.585-0.069-2.441-0.331-3.012-0.55-0.704-0.256-1.344-0.663-1.864-1.194-0.539-0.519-0.951-1.144-1.211-1.838-0.222-0.563-0.488-1.413-0.558-2.969-0.076-1.688-0.095-2.194-0.095-6.464s0.019-4.782 0.095-6.464c0.070-1.563 0.336-2.407 0.558-2.969 0.26-0.694 0.672-1.325 1.218-1.838 0.526-0.531 1.16-0.938 1.864-1.194 0.571-0.219 1.433-0.481 3.012-0.55 1.712-0.075 2.226-0.094 6.556-0.094 4.337 0 4.85 0.019 6.556 0.094 1.585 0.069 2.441 0.331 3.012 0.55 0.704 0.256 1.344 0.662 1.864 1.194 0.539 0.519 0.951 1.144 1.211 1.838 0.222 0.563 0.488 1.413 0.558 2.969 0.076 1.688 0.095 2.194 0.095 6.464s-0.019 4.77-0.095 6.458z"></path>
<path d="M16.289 7.783c-4.603 0-8.338 3.682-8.338 8.22s3.735 8.22 8.338 8.22c4.603 0 8.338-3.682 8.338-8.22s-3.735-8.22-8.338-8.22zM16.289 21.336c-2.986 0-5.409-2.388-5.409-5.332s2.422-5.332 5.409-5.332c2.986 0 5.408 2.388 5.408 5.332s-2.422 5.332-5.408 5.332v0z"></path>
<path d="M26.903 7.458c0 1.060-0.872 1.919-1.947 1.919s-1.947-0.859-1.947-1.919c0-1.060 0.872-1.919 1.947-1.919s1.947 0.859 1.947 1.919v0z"></path>
</symbol>
<symbol id="icon-arrow" viewBox="0 0 32 32">
<path  d="M21.193 14.511h-15.821v2.635h15.821v3.952l5.256-5.269-5.256-5.269v3.952z"></path>
</symbol>
<symbol id="icon-yahoo" viewBox="0 0 32 32">
<path  d="M23.506 11.854c-0.626 0.169-6.344 4.603-6.721 5.693-0.082 0.375 0.009 4.020 0.092 4.566 0.376 0.084 3.097 0.011 3.596 0.095l-0.060 1.126c-0.489-0.038-3.946-0.029-5.918-0.029-1.002 0-4.223 0.111-5.214 0.083l0.187-1.073c0.543-0.041 2.79 0.1 3.283-0.425 0.244-0.261 0.168-3.724 0.084-4.31-0.207-0.627-5.219-6.907-6.529-7.935h-3.375v-1.579h11.384v0.109c0.010 0 0.028 0.001 0.038 0.004l-0.038 0.266v1.199h-3.432c1.529 2.238 3.724 4.94 4.658 6.236l4.585-4.154h-2.726l-0.384-1.577h9.984l-0.074 0.111 0.036 0.003-0.713 1.034c-0.008 0-0.015 0.002-0.023 0.004l-0.288 0.425h-1.842c-0.238 0.051-0.448 0.098-0.59 0.128zM26.764 21.742l-0.881-0.043-0.984-0.12 0.009 1.685 0.776 0.067 0.836 0.061 0.244-1.65zM28.475 13.683c-0.297-0.010-3.001-0.266-3.353-0.335l0.041 7.121 1.531 0.124 1.781-6.91z"></path>
</symbol>
<symbol id="icon-github" viewBox="0 0 33 32">
<path  d="M16.239 2.666c-1.73 0-3.443 0.341-5.041 1.003s-3.050 1.632-4.274 2.856c-2.47 2.47-3.858 5.821-3.858 9.315 0 5.822 3.781 10.762 9.010 12.514 0.659 0.105 0.869-0.303 0.869-0.659v-2.226c-3.649 0.79-4.426-1.765-4.426-1.765-0.606-1.528-1.462-1.936-1.462-1.936-1.199-0.817 0.092-0.79 0.092-0.79 1.317 0.092 2.015 1.357 2.015 1.357 1.146 2.002 3.082 1.41 3.833 1.093 0.119-0.856 0.461-1.436 0.83-1.765-2.924-0.329-5.994-1.462-5.994-6.481 0-1.462 0.501-2.635 1.357-3.57-0.132-0.329-0.593-1.699 0.132-3.478 0 0 1.107-0.356 3.622 1.344 1.041-0.29 2.174-0.435 3.293-0.435s2.253 0.145 3.293 0.435c2.516-1.699 3.622-1.344 3.622-1.344 0.724 1.778 0.263 3.148 0.132 3.478 0.856 0.935 1.357 2.108 1.357 3.57 0 5.032-3.082 6.139-6.020 6.468 0.474 0.408 0.909 1.212 0.909 2.437v3.609c0 0.356 0.211 0.777 0.883 0.659 5.23-1.765 8.997-6.692 8.997-12.514 0-1.73-0.341-3.443-1.003-5.041s-1.632-3.050-2.855-4.274c-1.223-1.223-2.675-2.193-4.274-2.856s-3.311-1.003-5.041-1.003z"></path>
</symbol>
<symbol id="icon-gmail" viewBox="0 0 31 32">
<path  d="M7.568 9.032c-0.146-0.079-0.31-0.118-0.476-0.115s-0.328 0.050-0.471 0.135c-0.143 0.085-0.261 0.206-0.343 0.35s-0.125 0.308-0.125 0.474v12.158c0 0.255 0.101 0.499 0.281 0.679s0.424 0.281 0.679 0.281c0.255 0 0.499-0.101 0.679-0.281s0.281-0.424 0.281-0.679v-10.55l6.903 3.717c0.284 0.153 0.627 0.153 0.911 0l6.903-3.717v10.55c0 0.255 0.101 0.499 0.281 0.679s0.424 0.281 0.679 0.281c0.255 0 0.499-0.101 0.679-0.281s0.281-0.424 0.281-0.679v-12.158c-0-0.166-0.043-0.329-0.125-0.474s-0.2-0.265-0.343-0.35-0.305-0.132-0.471-0.135c-0.166-0.004-0.33 0.036-0.476 0.115l-7.863 4.233-7.863-4.233z"></path>
<path  d="M22.227 5.043c-4.521-0.404-9.070-0.404-13.591 0l-1.943 0.173c-1.012 0.090-1.964 0.519-2.702 1.217s-1.22 1.624-1.366 2.63c-0.637 4.36-0.637 8.789 0 13.148 0.147 1.005 0.629 1.932 1.367 2.629s1.691 1.126 2.702 1.216l1.94 0.174c4.523 0.404 9.071 0.404 13.594 0l1.941-0.174c1.012-0.090 1.963-0.519 2.702-1.217s1.22-1.624 1.367-2.629c0.637-4.36 0.637-8.789 0-13.148-0.147-1.005-0.628-1.932-1.367-2.63s-1.691-1.127-2.703-1.217l-1.941-0.173zM8.807 6.955c4.408-0.394 8.843-0.394 13.251 0l1.941 0.174c0.582 0.052 1.13 0.298 1.554 0.699s0.702 0.934 0.786 1.512c0.611 4.175 0.611 8.418 0 12.593-0.085 0.578-0.362 1.111-0.786 1.512s-0.972 0.648-1.554 0.699l-1.941 0.174c-4.408 0.394-8.843 0.394-13.251 0l-1.941-0.174c-0.582-0.052-1.13-0.298-1.554-0.699s-0.702-0.934-0.786-1.512c-0.611-4.175-0.611-8.418 0-12.593 0.085-0.578 0.362-1.111 0.786-1.512s0.972-0.648 1.554-0.699l1.941-0.174z"></path>
</symbol>
<symbol id="icon-linkedin" viewBox="0 0 32 32">
<path  d="M13.015 11.753h4.753v2.368c0.685-1.362 2.441-2.585 5.078-2.585 5.056 0 6.257 2.711 6.257 7.684v9.211h-5.119v-8.078c0-2.832-0.685-4.429-2.428-4.429-2.418 0-3.422 1.721-3.422 4.428v8.079h-5.119v-16.677zM4.237 28.212h5.119v-16.677h-5.119v16.677zM10.090 6.098c0 0.429-0.085 0.854-0.25 1.25s-0.408 0.755-0.713 1.056c-0.619 0.615-1.457 0.959-2.329 0.957-0.871-0.001-1.707-0.344-2.327-0.956-0.304-0.302-0.546-0.662-0.711-1.058s-0.251-0.821-0.251-1.25c0-0.866 0.346-1.696 0.964-2.307 0.619-0.613 1.455-0.956 2.327-0.956 0.873 0 1.71 0.344 2.328 0.956 0.617 0.612 0.964 1.441 0.964 2.307z"></path>
</symbol>
<symbol id="icon-line" viewBox="0 0 646 32">
<path fill="none" stroke="#3c8b5b" style="stroke: var(--color1, #3c8b5b)" stroke-linejoin="miter" stroke-linecap="butt" stroke-miterlimit="4" stroke-width="25.2044" d="M4.782 13.090h638.508"></path>
</symbol>
</defs>
</svg>
